name rise32.9588peak41.5061fall63.4684.mot
datacolumns 19
datarows 11
range 6.93497900000000 6.95164100000000
endheader
time	ground_force1_vx	ground_force1_vy	ground_force1_vz	ground_force1_px	ground_force1_py	ground_force1_pz	ground_force2_vx	ground_force2_vy	ground_force2_vz	ground_force2_px	ground_force2_py	ground_force2_pz	ground_torque1_x	ground_torque1_y	ground_torque1_z	ground_torque2_x	ground_torque2_y	ground_torque2_z	
6.93497900000000	-5.68877100000000	42.24470000000000	-9.24573800000000	0.32426600000000	0.00000000000000	0.08641400000000	-39.62884600000000	771.91920000000005	-49.88076200000000	0.12976800000000	0.00000000000000	-0.07753700000000	0.00000000000000	-6.10613600000000	0.00000000000000	0.00000000000000	-17.69269700000000	0.00000000000000	
6.93664500000000	-6.19743900000000	49.46505700000000	-10.32929400000000	0.32604600000000	0.00000000000000	0.08765700000000	-40.30592600000000	768.87980500000003	-49.43697100000000	0.12913300000000	0.00000000000000	-0.07742200000000	0.00000000000000	-6.85592400000000	0.00000000000000	0.00000000000000	-17.62446900000000	0.00000000000000	
6.93830900000000	-6.58686800000000	56.76649800000000	-11.29027700000000	0.32766600000000	0.00000000000000	0.08878900000000	-41.01946800000000	765.74981400000001	-48.97196000000000	0.12848900000000	0.00000000000000	-0.07730200000000	0.00000000000000	-7.53351300000000	0.00000000000000	0.00000000000000	-17.56056200000000	0.00000000000000	
6.93997500000000	-6.84131300000000	64.05525700000000	-12.10442300000000	0.32915400000000	0.00000000000000	0.08982600000000	-41.76849900000000	762.52638300000001	-48.48567200000000	0.12783600000000	0.00000000000000	-0.07717900000000	0.00000000000000	-8.12301500000000	0.00000000000000	0.00000000000000	-17.50086500000000	0.00000000000000	
6.94164500000000	-6.95165600000000	71.26117499999999	-12.75627100000000	0.33053500000000	0.00000000000000	0.09078000000000	-42.55186900000000	759.20651399999997	-47.97807900000000	0.12717700000000	0.00000000000000	-0.07705100000000	0.00000000000000	-8.61421600000000	0.00000000000000	0.00000000000000	-17.44523800000000	0.00000000000000	
6.94330700000000	-6.91527100000000	78.33980800000000	-13.23919100000000	0.33182700000000	0.00000000000000	0.09166300000000	-43.36824900000000	755.78706399999999	-47.44917700000000	0.12650900000000	0.00000000000000	-0.07691900000000	0.00000000000000	-9.00261600000000	0.00000000000000	0.00000000000000	-17.39351200000000	0.00000000000000	
6.94497300000000	-6.73538500000000	85.27208000000000	-13.55468100000000	0.33304600000000	0.00000000000000	0.09248200000000	-44.21613300000000	752.26475700000003	-46.89899000000000	0.12583500000000	0.00000000000000	-0.07678300000000	0.00000000000000	-9.28899700000000	0.00000000000000	0.00000000000000	-17.34548900000000	0.00000000000000	
6.94664600000000	-6.42007400000000	92.06188899999999	-13.71112500000000	0.33420500000000	0.00000000000000	0.09324600000000	-45.09384500000000	748.63619600000004	-46.32757500000000	0.12515500000000	0.00000000000000	-0.07664300000000	0.00000000000000	-9.47862600000000	0.00000000000000	0.00000000000000	-17.30094400000000	0.00000000000000	
6.94830400000000	-5.98103600000000	98.73223200000000	-13.72219000000000	0.33531400000000	0.00000000000000	0.09396000000000	-45.99953500000000	744.89788299999998	-45.73501600000000	0.12447000000000	0.00000000000000	-0.07649800000000	0.00000000000000	-9.58023300000000	0.00000000000000	0.00000000000000	-17.25962700000000	0.00000000000000	
6.94997500000000	-5.43227300000000	105.32042800000001	-13.60507700000000	0.33638200000000	0.00000000000000	0.09463000000000	-46.93119100000000	741.04622700000004	-45.12143500000000	0.12378100000000	0.00000000000000	-0.07634900000000	0.00000000000000	-9.60487500000000	0.00000000000000	0.00000000000000	-17.22125800000000	0.00000000000000	
6.95164100000000	-4.78882600000000	111.87298400000000	-13.37878100000000	0.33741600000000	0.00000000000000	0.09526000000000	-47.88663800000000	737.07756700000004	-44.48698600000000	0.12308700000000	0.00000000000000	-0.07619600000000	0.00000000000000	-9.56480300000000	0.00000000000000	0.00000000000000	-17.18553600000000	0.00000000000000	
